<svg width="251" height="397" viewBox="0 0 251 397" fill="none" xmlns="http://www.w3.org/2000/svg">
<path d="M100.117 3.55332C94.8921 8.62666 67.9828 22.1733 53.3641 27.092C47.5655 29.0427 37.1361 31.7853 30.1868 33.1867C23.2375 34.5893 16.9375 36.3507 16.1868 37.1027C15.3401 37.9507 14.8215 49.3267 14.8215 67.0387V95.608L18.5268 99.304L22.2335 103H51.8601C72.8815 103 81.4095 103.431 81.2161 104.483C81.0668 105.299 80.5201 153.749 80.0015 212.149L79.0601 318.333L43.6068 318.353C17.7268 318.368 7.2548 318.828 4.82146 320.057C1.52013 321.725 1.48413 321.936 1.06413 341.704C0.612128 363 2.59746 383.879 5.50813 388.464C7.22413 391.167 8.58546 391.289 45.7201 392.075C66.8588 392.521 107.855 393.661 136.821 394.609C195.945 396.544 235.092 396.791 242.371 395.275C246.229 394.469 247.559 393.384 248.704 390.096C250.372 385.312 250.544 345.001 248.939 335.233C247.081 323.939 247.06 323.931 212.821 322.872L182.821 321.943L182.573 239.805C182.3 149.691 179.993 26.5627 178.325 13.1453C177.593 7.25599 176.501 4.06266 174.789 2.81199C172.852 1.39466 164.733 1 137.529 1C105.069 1 102.572 1.17066 100.117 3.55332ZM172.043 10.444C172.441 10.8427 172.219 24.0307 171.547 39.7507C170.337 68.02 172.013 291.384 173.603 313.865C174.816 331.023 173.259 330.333 210.839 330.333H242.085L241.473 360L240.863 389.667L234.508 389.412C231.013 389.271 218.855 388.508 207.488 387.715C173.565 385.347 112.677 383.501 59.9681 383.243L10.4495 383L8.99612 367C8.19612 358.2 7.16679 345.844 6.70812 339.543L5.87479 328.087L31.6815 327.165C62.8055 326.055 79.5108 324.44 84.4641 322.065L88.1548 320.296V210.981C88.1548 127.704 87.7695 100.995 86.5361 98.844C84.4335 95.1787 75.7161 94.16 46.9561 94.2227L25.3148 94.2693L23.7295 73.968C22.8575 62.8027 22.1455 51.1587 22.1495 48.0947L22.1548 42.5227L29.8215 40.9867C43.5188 38.244 53.2841 35.5093 64.1548 31.372C77.8001 26.1773 98.5815 16.4933 103.316 13.1227C105.333 11.6867 109.647 10.2707 112.903 9.97599C121.519 9.19599 171.188 9.58932 172.043 10.444Z" fill="black" stroke="black" stroke-width="1.33333"/>
<path d="M106.786 12.1694C91.275 23.0054 49.5203 38.968 29.623 41.668L23.0897 42.5547L23.9163 61.444C24.371 71.832 25.127 83.332 25.5963 86.9987L26.4483 93.6654L53.9683 93.7387C72.7003 93.788 82.4203 94.3214 84.407 95.4094C86.451 96.5267 87.6496 98.9027 88.407 103.336C89.0016 106.817 89.4763 156.972 89.4616 214.792C89.4323 334.099 90.707 322.18 77.675 324.98C72.5137 326.089 35.2563 328.229 8.29099 328.965C7.61232 328.984 7.45364 334.049 7.92431 340.665C8.38164 347.083 9.10831 357.732 9.53897 364.332C9.97097 370.932 10.5976 377.683 10.931 379.332L11.539 382.332L64.5136 382.383C126.632 382.441 158.348 383.625 227.507 388.465L240.191 389.353L240.506 360.509L240.82 331.665H210.93C194.49 331.665 180.068 331.292 178.882 330.837C173.675 328.84 172.934 323.907 172.163 286.148C169.835 172.167 168.952 67.576 170.128 44.9987C170.835 31.432 171.43 18.0827 171.451 15.332L171.488 10.332H140.452C116.246 10.332 108.836 10.736 106.786 12.1694Z" fill="#FFC324" stroke="#FFC324" stroke-width="1.33333"/>
</svg>
