<svg width="258" height="389" viewBox="0 0 258 389" fill="none" xmlns="http://www.w3.org/2000/svg">
<path d="M103.789 1.38616C96.2333 2.58749 77.6146 8.68349 68.7066 12.8742C55.2239 19.2142 40.9599 29.1995 29.3306 40.4368C18.4266 50.9742 15.0199 55.8342 16.1693 59.2102C17.3039 62.5395 52.1453 101.437 55.9479 103.619C57.1999 104.337 59.7679 103.101 63.6759 99.8982C70.8586 94.0128 86.8186 85.6795 95.7893 83.1302C99.4559 82.0888 106.656 81.2475 111.789 81.2622C119.676 81.2835 122.569 81.9942 130.456 85.8475C143.772 92.3542 155.533 104.293 158.425 114.239C161.569 125.057 159.809 130.43 150.26 139.158C137.325 150.979 130.785 153.426 100.229 157.875C87.8626 159.675 84.7239 161.367 83.1346 167.089C81.4546 173.137 81.4039 219.204 83.0746 221.845C84.0159 223.334 87.4959 223.866 97.3879 224.032C112.321 224.282 117.689 225.788 137.123 235.17C153.797 243.22 166.605 254.381 171.153 264.823C177.361 279.078 173.521 297.742 162.512 306.817C156.604 311.686 143.884 315.875 129.025 317.846C117.42 319.385 108.533 318.165 91.5639 312.704C80.7826 309.234 78.2239 307.845 62.6719 297.013C40.7746 281.763 42.4746 282.541 37.9973 285.729C35.8839 287.233 28.5239 294.625 21.6386 302.154C14.7546 309.684 7.47058 317.65 5.45192 319.86C0.474583 325.309 -0.0654177 327.669 2.52658 332.679C6.76392 340.873 26.0666 357.956 37.7106 363.816C53.3492 371.688 75.5493 379.27 95.1226 383.426C113.777 387.387 117.801 387.8 136.456 387.654C154.917 387.51 158.949 387.04 174.24 383.234C193.777 378.374 198.3 376.672 207.777 370.609C227.284 358.13 246.955 328.29 253.964 300.544C260.523 274.584 256.541 243.701 244.081 223.877C235.076 209.55 215.428 191.862 201.203 185.277L195.949 182.845L201.203 178.745C228.421 157.504 242.032 130.619 242.144 97.8768C242.261 64.1835 231.939 41.3782 209.311 25.3315C193.48 14.1048 177.332 7.54748 156.456 3.86748C144.901 1.83148 111.032 0.235493 103.789 1.38616ZM149.123 13.8755C166.715 17.0768 172.204 18.5328 181.907 22.5715C216.283 36.8755 229.789 58.1182 229.789 97.8768C229.789 133.447 218.335 155.53 189.384 175.771C184.395 179.259 180.52 182.737 180.773 183.497C181.028 184.258 184.816 186.177 189.192 187.761C200.716 191.934 210.905 199.213 222.765 211.741C239.971 229.918 247.151 248.177 247.1 273.63C247.044 301.266 236.323 328.389 217 349.769C207.163 360.654 198.903 365.265 179.468 370.714C162.955 375.343 161.732 375.49 137.789 375.681C115.325 375.86 111.515 375.537 95.1226 372.074C73.5506 367.518 54.6359 361.191 40.7106 353.875C28.0746 347.237 9.78659 330.602 9.79326 325.753C9.79726 323.589 13.9519 317.876 22.5506 308.21C33.0453 296.414 35.9666 293.877 39.0493 293.877C41.1106 293.877 43.5159 294.745 44.3959 295.805C46.7879 298.686 75.1826 317.225 79.7893 318.913C98.3186 325.701 108.121 327.776 121.123 327.664C149.855 327.416 171.337 316.398 179.859 297.54C189.213 276.841 183.92 259.139 163.123 241.57C152.616 232.694 146.113 229.015 130.443 223.082C119.544 218.955 117.223 218.553 104.871 218.646L91.2852 218.75L90.5893 210.646C89.2159 194.653 88.5306 168.543 89.4839 168.537C90.0186 168.534 98.3186 167.374 107.928 165.961C133.433 162.207 144.201 157.287 159.284 142.494C173.368 128.681 174.015 114.698 161.361 97.5835C154.448 88.2328 134.225 75.7608 120.875 72.6155C106.993 69.3435 86.8546 76.4022 68.9853 90.8022C60.0333 98.0155 58.8413 97.4728 39.9053 77.5782C20.0506 56.7168 19.3199 54.6795 28.7893 46.5568C47.5826 30.4355 70.8159 19.3275 101.123 11.9728C105.483 10.9155 140.479 12.3021 149.123 13.8755Z" fill="black" stroke="black" stroke-width="1.33333"/>
<path d="M99.123 13.3845C91.7777 14.8712 77.3284 19.5218 69.455 22.9338C47.567 32.4165 23.1004 49.6605 23.1457 55.5725C23.179 59.9165 55.6457 93.8765 59.7657 93.8765C61.4577 93.8765 68.115 90.2792 74.559 85.8818C94.827 72.0512 111.939 68.1325 127.699 73.7112C145.331 79.9539 161.664 93.2765 167.604 106.263C174.276 120.851 171.336 132.714 157.851 145.618C144.783 158.122 128.83 164.457 100.675 168.319C95.2951 169.057 90.7217 169.859 90.511 170.102C90.3004 170.345 90.4297 181.088 90.8004 193.978L91.4737 217.413L104.966 217.337C117.82 217.266 119.126 217.53 132.655 222.95C160.518 234.11 176.939 248.51 183 267.097C186.719 278.498 186.53 282.71 181.748 295.11C175.15 312.218 164.734 320.367 142.508 325.806C124.79 330.142 112.435 329.822 94.4644 324.565C86.403 322.206 78.003 319.352 75.7977 318.224C68.6284 314.556 44.2271 297.498 43.5231 295.663C42.1124 291.987 36.8924 293.883 31.0044 300.21C17.0924 315.158 11.123 322.989 11.123 326.291C11.123 330.826 30.8151 348.163 42.2071 353.658C55.9191 360.271 70.5684 365.726 80.1097 367.771C112.67 374.751 119.272 375.518 141.123 374.854C159.551 374.294 164.626 373.631 178.382 369.985C197.678 364.869 204.814 361.153 214.148 351.362C222.6 342.497 227.666 335.215 234.196 322.543C243.483 304.521 246.536 289.225 245.375 266.543C244.238 244.343 238.782 230.457 225.318 215.499C212.179 200.903 200.103 191.807 189.788 188.736C177.122 184.967 176.878 183.417 187.79 176.033C204.794 164.526 219.059 146.869 224.335 130.797C228.844 117.057 230.459 99.4738 228.551 84.8872C225.534 61.8178 220.691 51.2338 207.747 39.4032C195.435 28.1498 176.39 19.4858 155.847 15.7925C144.966 13.8352 105.224 12.1485 99.123 13.3845Z" fill="#FFC324" stroke="#FFC324" stroke-width="1.33333"/>
</svg>
