<svg width="1000" height="1000" viewBox="0 0 1000 1000" fill="none" xmlns="http://www.w3.org/2000/svg">
<path d="M950 319.021C950 319.021 812.244 319.022 720.408 334.137C628.571 349.252 527.551 407.971 527.551 407.971V832.521C527.551 832.521 619.198 784.209 692.857 786.375C759.621 788.337 821.429 832.521 830.612 832.521C839.796 832.521 950 319.021 950 319.021Z" fill="black"/>
<path d="M50 319.021C50 319.021 187.755 319.022 279.592 334.137C371.429 349.252 472.449 407.971 472.449 407.971V832.521C472.449 832.521 380.802 784.209 307.143 786.375C240.379 788.337 178.571 832.521 169.388 832.521C160.204 832.521 50 319.021 50 319.021Z" fill="black"/>
<path d="M830.613 177.968C830.613 177.968 757.144 150.28 665.306 187.197C573.47 224.115 509.184 325.637 509.184 325.637V371.046C509.184 371.046 564.286 324.899 665.306 297.211C766.327 269.523 830.613 269.523 830.613 269.523V177.968Z" fill="black"/>
<path d="M169.383 177.968C169.383 177.968 242.852 150.28 334.689 187.197C426.526 224.115 490.812 325.637 490.812 325.637V371.046C490.812 371.046 435.71 324.899 334.689 297.211C233.669 269.523 169.383 269.523 169.383 269.523V177.968Z" fill="black"/>
</svg>
