<svg xmlns="http://www.w3.org/2000/svg" width="457" height="342" viewBox="0 0 457 342" fill="none">
    <path d="M116.716 2.2098C98.9228 2.76713 74.6228 3.95248 62.7161 4.84314C50.8094 5.73381 33.3681 6.83247 23.9574 7.28447C9.12011 7.9978 6.59612 8.45113 4.95745 10.6951C3.44278 12.7698 3.06278 20.1805 3.04411 48.0285C3.03078 67.1391 2.41878 95.0738 1.68278 110.107C0.712113 129.954 0.77078 141.823 1.89478 153.44C2.74811 162.24 3.50945 193.343 3.58945 222.558C3.73345 275.312 3.75478 275.691 6.61745 278.011C10.0814 280.815 27.9001 281.658 112.068 282.998C142.319 283.479 167.068 284.05 167.068 284.264C167.068 284.479 164.304 291.131 160.924 299.047C154.324 314.511 149.444 323.582 146.341 326.158C145.275 327.043 144.401 329.824 144.401 332.338C144.401 336.355 145.004 337.162 149.371 338.986C153.512 340.716 158.24 340.926 177.704 340.244C190.555 339.794 211.472 339.06 224.189 338.612C236.912 338.166 259.913 338.502 275.335 339.362C301.227 340.804 303.551 340.75 305.88 338.642C307.267 337.387 308.401 334.654 308.401 332.568C308.401 328.242 301.368 313.683 292.859 300.399C289.673 295.426 287.068 290.863 287.068 290.259C287.068 289.655 292.919 288.794 300.068 288.346C307.219 287.896 322.068 286.888 333.068 286.106C345.604 285.212 370.523 285.018 399.835 285.583L446.603 286.486L451.168 282.407L455.735 278.328L455.681 244.551C455.652 225.974 455.512 167.106 455.369 113.734L455.111 16.6951L451.997 13.5818C448.943 10.5285 448.216 10.4525 412.976 9.52047C368.647 8.34714 322.424 6.59648 289.068 4.82581C208.239 0.536475 182.548 0.147135 116.716 2.2098ZM287.068 16.6071C324.76 19.0778 381.461 21.9498 410.115 22.8378L439.161 23.7391L438.957 112.59C438.845 161.458 439.212 205.886 439.771 211.318L440.788 221.195L405.595 220.324C386.239 219.846 347.601 218.567 319.735 217.483C284.912 216.128 230.021 215.5 144.196 215.476L19.3241 215.44L18.5508 201.774C15.6281 150.172 15.2628 132.652 16.0001 79.2952L16.8214 19.8165L35.6121 18.9031C45.9454 18.4018 68.5015 17.1751 85.7348 16.1791C120.957 14.1418 253.777 14.4245 287.068 16.6071ZM293.735 228.983C351.301 229.831 407.769 230.207 419.22 229.819L440.039 229.112L440.887 239.144C442.312 256.014 441.944 270.07 440.068 270.408C439.152 270.575 417.401 270.724 391.735 270.742C361.169 270.763 337.477 271.464 323.068 272.774C296.299 275.207 201.519 275.236 173.068 272.82C134.831 269.574 119.824 268.8 69.1814 267.472C40.6428 266.723 17.0054 265.823 16.6548 265.471C16.3028 265.119 16.5521 256.568 17.2081 246.47L18.4014 228.107L31.7348 227.408C50.2895 226.435 169.361 227.151 293.735 228.983ZM220.761 287.498C231.593 288.199 247.628 288.774 256.393 288.774H272.332L277.916 299.774C280.987 305.824 285.149 314.05 287.165 318.055L290.829 325.336L273.949 325.046C264.664 324.886 246.868 324.403 234.401 323.974C220.901 323.508 205.264 323.816 195.735 324.736C167.821 327.431 161.735 327.822 161.735 326.912C161.735 326.426 163.156 322.595 164.895 318.4C167.443 312.25 171.517 300.304 175.767 286.522C176.281 284.85 181.688 284.967 220.761 287.498Z"
          fill="black" stroke="black" stroke-width="2"/>
    <path d="M217.069 244.98C212.898 247.486 211.157 250.418 211.112 255.012C211.053 260.81 216.193 264.776 223.768 264.776C231.265 264.776 235.03 261.626 235.977 254.562C236.63 249.692 236.315 248.78 233.277 246.789C228.823 243.87 220.466 242.938 217.069 244.98Z"
          fill="black" stroke="black" stroke-width="2"/>
</svg>