<svg xmlns="http://www.w3.org/2000/svg" version="1.1" xmlns:xlink="http://www.w3.org/1999/xlink"  x="0" y="0" viewBox="0 0 512 512" style="enable-background:new 0 0 512 512" xml:space="preserve" class=""><g><path style="" d="M511.867,234.008c-0.061-0.969-0.25-1.901-0.57-2.818c-0.119-0.341-0.205-0.677-0.357-1.003&#10;&#9;c-0.514-1.104-1.162-2.151-2.053-3.046c-0.006-0.006-0.01-0.014-0.01-0.014L448,166.25v-59.583c0-0.232-0.118-0.44-0.133-0.672&#10;&#9;c-0.06-0.941-0.242-1.846-0.546-2.741c-0.117-0.342-0.206-0.676-0.357-1.005c-0.519-1.133-1.173-2.21-2.088-3.124l-96-96&#10;&#9;c-0.919-0.919-1.999-1.575-3.136-2.096c-0.317-0.145-0.635-0.23-0.964-0.344c-0.918-0.318-1.85-0.503-2.819-0.561&#10;&#9;C341.742,0.111,341.549,0,341.333,0H74.667C68.776,0,64,4.776,64,10.667V166.25L3.128,227.122c0,0-0.009,0.013-0.016,0.019&#10;&#9;c-0.891,0.894-1.539,1.941-2.053,3.046c-0.152,0.326-0.238,0.661-0.357,1.003c-0.32,0.917-0.509,1.849-0.57,2.818&#10;&#9;C0.118,234.238,0,234.432,0,234.667v202.667C0,443.224,4.776,448,10.667,448H64v53.333C64,507.224,68.776,512,74.667,512h362.667&#10;&#9;c5.891,0,10.667-4.776,10.667-10.667V448h53.333c5.891,0,10.667-4.776,10.667-10.667V234.667&#10;&#9;C512,234.432,511.882,234.238,511.867,234.008z" fill="#314e55" data-original="#314e55" class=""/><polygon style="" points="475.583,224 448,224 448,196.417 " fill="#eaeaea" data-original="#eaeaea" class=""/><polygon style="" points="411.583,96 352,96 352,36.417 " fill="#d8d8d8" data-original="#d8d8d8"/><g><path style="" d="M85.333,21.333h245.333v85.333c0,5.891,4.776,10.667,10.667,10.667h85.333v53.333V224H85.333&#10;&#9;&#9;v-53.333V21.333z" fill="#eaeaea" data-original="#eaeaea" class=""/><polygon style="" points="64,196.417 64,224 36.417,224 &#9;" fill="#eaeaea" data-original="#eaeaea" class=""/><rect x="85.333" y="448" style="" width="341.333" height="42.667" fill="#eaeaea" data-original="#eaeaea" class=""/></g><polygon style="" points="490.667,426.667 21.333,426.667 21.333,245.333 74.667,245.333 437.333,245.333 &#10;&#9;490.667,245.333 " fill="#f36c6c" data-original="#d26cba" class=""/><path style="" d="M194.71,285.013c-3.445-2.954-7.345-5.046-11.696-6.25c-4.352-1.206-8.583-1.814-12.693-1.814&#10;&#9;h-35.542v128.384h21.398v-51.499h15.232c4.473,0,8.824-0.789,13.056-2.357c4.231-1.569,7.978-3.99,11.243-7.254&#10;&#9;c3.264-3.264,5.893-7.339,7.888-12.245c1.994-4.897,2.991-10.603,2.991-17.131c0-7.253-1.118-13.301-3.354-18.133&#10;&#9;C200.995,291.883,198.155,287.979,194.71,285.013z" fill="#314e55" data-original="#314e55" class=""/><path style="" d="M181.019,330.72c-3.264,3.562-7.435,5.344-12.512,5.344h-12.33v-40.799h12.33&#10;&#9;c5.078,0,9.248,1.568,12.512,4.715c3.264,3.146,4.896,8.159,4.896,15.051C185.915,321.921,184.283,327.147,181.019,330.72z" fill="#f36c6c" data-original="#d26cba" class=""/><g><polygon style="" points="327.717,405.333 349.659,405.333 349.659,350.208 382.481,350.208 382.481,331.531 &#10;&#9;&#9;349.477,331.531 349.477,296.534 385.2,296.534 385.2,276.949 327.717,276.949 &#9;" fill="#314e55" data-original="#314e55" class=""/><path style="" d="M256.817,276.949h-32.277v128.384h32.095c16.562,0,29.104-5.59,37.627-16.768&#10;&#9;&#9;c8.522-11.189,12.784-26.934,12.784-47.242c0-20.31-4.262-36.117-12.784-47.425C285.739,282.603,273.257,276.949,256.817,276.949z" fill="#314e55" data-original="#314e55" class=""/></g><path style="" d="M283.2,360.992c-1.389,5.631-3.354,10.315-5.893,14.059c-2.538,3.743-5.561,6.56-9.066,8.427&#10;&#9;c-3.506,1.876-7.314,2.815-11.424,2.815h-10.336V295.99h10.336c4.109,0,7.917,0.939,11.424,2.815&#10;&#9;c3.506,1.867,6.528,4.683,9.066,8.427c2.539,3.745,4.504,8.458,5.893,14.145c1.39,5.685,2.086,12.331,2.086,19.947&#10;&#9;C285.286,348.822,284.59,355.371,283.2,360.992z" fill="#f36c6c" data-original="#d26cba" class=""/><g></g><g></g><g></g><g></g><g></g><g></g><g></g><g></g><g></g><g></g><g></g><g></g><g></g><g></g><g></g></g></svg>
