<svg width="249" height="382" viewBox="0 0 249 382" fill="none" xmlns="http://www.w3.org/2000/svg">
<path d="M88.3333 2.38583C75.4173 5.5525 60.8707 10.7245 51 15.6592C30.828 25.7432 2.40134 50.2872 2.35201 57.6592C2.34001 59.5952 7.16933 65.0178 17.3333 74.4792C36.2053 92.0485 44.8293 99.4698 46.368 99.4698C47.0307 99.4698 49.5453 97.7738 51.9533 95.7005C67.128 82.6392 80.9133 77.0512 100.753 75.9152C117.389 74.9632 125.637 76.8178 136.591 83.9738C150.023 92.7485 155.02 106.141 152.757 127.305C150.029 152.818 136.36 179.426 107.807 214.803C93.38 232.678 45.1067 279.762 21 299.473C10.364 308.169 8.31067 310.219 4.46 315.99C1.044 321.109 1 321.493 1 346.067C1 365.451 1.41867 371.533 2.89067 373.549C4.69867 376.022 7.48666 376.175 65.8907 377.022C99.5013 377.509 141.1 378.547 158.333 379.327C175.567 380.109 202.376 380.761 217.911 380.775C243.671 380.801 246.215 380.598 246.843 378.47C247.223 377.187 247.704 362.159 247.915 345.077C248.237 318.801 247.991 313.806 246.315 312.647C244.997 311.736 224.995 311.493 186.667 311.919C154.951 312.273 129 312.315 129 312.014C129 311.712 133.992 305.316 140.095 297.8C190.044 236.283 215.479 192.254 227.323 146.803C230.355 135.173 230.803 130.745 230.837 112.137C230.883 87.4538 228.527 76.1712 219.352 57.1325C212.516 42.9472 205.975 34.8418 193.997 25.7232C177.212 12.9432 162.237 6.9365 137 2.8605C123.027 0.603169 96.656 0.345832 88.3333 2.38583ZM129.035 10.2072C181.139 16.6845 207.224 37.6392 218.405 82.0045C222.008 96.2965 221.975 127.469 218.34 143.91C208.821 186.961 177.173 241.871 128.299 300.137C116.917 313.705 115.209 316.317 116.427 318.287C117.187 319.518 131.876 319.673 179.92 318.954L242.424 318.02L241.544 345.079C241.06 359.961 240.289 372.505 239.832 372.954C239.021 373.751 225.439 373.426 117.781 370.03C89.244 369.13 53.1827 368.789 37.6427 369.273L9.39067 370.15L8.43599 345.962L7.48132 321.772L12.5733 316.503C15.3747 313.604 22.4667 307.254 28.3333 302.39C53.8987 281.195 95.004 241.623 112.333 221.524C152.739 174.664 170.577 130.661 160.887 101.761C155.711 86.3285 146.525 77.3765 128.441 70.1365C108.989 62.3498 75.5173 69.3685 57.8227 84.9445C48.4787 93.1698 46.9733 92.6672 27.2613 74.7552C16.328 64.8205 10.3333 58.4258 10.3333 56.7005C10.3333 50.4618 25.7533 36.8592 45.732 25.4738C55.636 19.8312 75.5133 12.6192 87.6667 10.2605C96.244 8.59517 115.863 8.56983 129.035 10.2072Z" fill="black" stroke="black" stroke-width="1.33333"/>
<path d="M86.3325 11.4219C84.4992 12.0139 78.1992 13.8139 72.3325 15.4232C54.5699 20.2966 31.6179 33.5046 17.6406 46.8952C8.48188 55.6712 8.87789 56.6859 28.5206 74.6886C37.9726 83.3512 46.5165 90.1366 47.9739 90.1366C49.4045 90.1366 53.7125 87.4552 57.5485 84.1779C75.2966 69.0152 106.613 61.9672 126.733 68.6046C143.282 74.0646 154.746 84.1392 160.91 98.6406C167.465 114.062 164.598 137.478 153.075 162.637C135.802 200.353 91.2166 250.803 29.5712 302.391C22.2899 308.485 14.6926 315.27 12.6872 317.47C8.55522 322.003 8.43254 323.491 9.87254 351.718L10.7352 368.633L50.2005 368.385C85.7072 368.162 203.554 370.609 229.149 372.099L239.298 372.691L240.19 353.747C240.681 343.329 241.451 331.262 241.902 326.935L242.723 319.066L182.194 320.031C122.777 320.978 114.333 320.583 114.333 316.854C114.333 316.113 117.483 311.747 121.333 307.154C196.775 217.143 226.855 152.709 219.757 96.3166C216.591 71.1672 208.195 51.7966 194.818 38.7752C179.593 23.9566 162.759 16.4419 134.999 12.0726C122.159 10.0526 91.8379 9.64724 86.3325 11.4219Z" fill="#FFC324" stroke="#FFC324" stroke-width="1.33333"/>
</svg>
