<svg width="422" height="430" viewBox="0 0 422 430" fill="none" xmlns="http://www.w3.org/2000/svg">
<path d="M166.095 2.72039C145.807 5.23639 133.019 9.13906 110.995 19.5351C76.6474 35.7484 51.5354 57.3671 35.9914 84.1017C10.1474 128.552 -1.93663 180.211 1.6047 231.102C3.39803 256.884 10.9914 292.38 18.6474 310.768C25.386 326.954 40.142 350.475 49.882 360.555C72.926 384.404 122.51 411.615 155.018 418.254C158.91 419.048 164.795 420.272 168.095 420.974C198.839 427.507 245.139 430.664 261.697 427.358C286.81 422.34 302.137 417.288 318.762 408.546C385.999 373.188 412.261 329.268 420.138 239C423.937 195.472 415.769 154.926 393.922 108.867C378.198 75.7177 359.362 53.8497 328.695 33.1444C303.819 16.3484 276.089 6.90972 239.429 2.75772C218.87 0.428391 184.718 0.412391 166.095 2.72039ZM382.418 124.102C391.519 144.115 397.351 162.644 401.485 184.692C406.851 213.318 404.067 257.247 394.551 294.102C386.191 326.474 371.553 350.644 348.762 369.706C315.374 397.63 273.69 414.143 236.762 414.074C208.006 414.02 165.25 408.158 144.762 401.458C129.835 396.576 103.318 382.212 88.0954 370.76C64.818 353.25 59.2847 347.311 46.478 326.102C33.414 304.466 29.5687 292.956 20.4167 248.102C17.6447 234.512 17.306 193.623 19.854 180.102C24.9087 153.286 31.314 130.795 33.51 132.152C34.2114 132.586 38.1914 137.251 42.3527 142.52C46.5154 147.791 54.6754 157.352 60.486 163.768C69.126 173.31 71.7527 175.435 74.906 175.435C80.9527 175.435 79.8554 170.731 71.322 160.067C67.23 154.952 63.4807 150.058 62.9887 149.187C61.9834 147.407 70.158 152.171 95.4287 168.091C131.735 190.963 148.67 201.306 178.493 218.818C188.245 224.544 196.59 229.824 197.039 230.55C197.487 231.275 198.222 233.666 198.671 235.862C199.907 241.904 207.967 247.814 215.19 247.972C225.135 248.192 230.762 243.224 230.762 234.223C230.762 229.607 235.291 225.156 294.13 171.948C300.711 165.998 313.295 154.958 322.095 147.415C330.895 139.872 340.985 131.03 344.515 127.766C348.047 124.502 351.246 122.14 351.623 122.518C352.001 122.896 350.729 126.035 348.798 129.495C344.205 137.723 344.551 143.923 349.638 144.511C354.639 145.091 357.689 141.324 366.457 123.743C372.233 112.162 374.294 109.106 375.454 110.41C376.282 111.34 379.415 117.502 382.418 124.102ZM245.429 21.4591C263.795 24.2697 269.406 25.5591 283.133 30.1231C310.749 39.3044 341.598 60.9937 360.529 84.5377C364.423 89.3804 365.137 92.7684 362.261 92.7684C359.041 92.7684 336.993 102.766 327.762 108.411C322.517 111.618 321.057 116.198 324.817 117.64C325.947 118.075 330.235 117.143 334.345 115.57C338.454 113.998 342.014 112.908 342.255 113.151C342.498 113.392 336.261 118.948 328.395 125.496C320.53 132.044 313.795 137.71 313.429 138.086C313.062 138.46 308.562 142.359 303.429 146.75C298.295 151.139 293.795 155.039 293.429 155.416C293.062 155.792 287.362 160.892 280.762 166.747C274.162 172.602 265.162 180.743 260.762 184.839C256.362 188.935 249.206 195.546 244.858 199.528C240.511 203.51 234.339 209.236 231.143 212.252L225.333 217.736L219.541 215.654C214.237 213.747 213.271 213.759 208.077 215.799C202.703 217.911 202.219 217.9 198.917 215.599C196.998 214.263 183.429 205.959 168.762 197.147C154.095 188.335 129.195 173.066 113.429 163.214C97.662 153.362 82.2127 143.871 79.0954 142.123C75.9794 140.375 73.4287 138.562 73.4287 138.095C73.4287 137.628 76.5794 137.658 80.4287 138.162C91.2367 139.575 96.0927 136.368 92.2727 130.343C90.9754 128.296 59.3034 120.203 47.0954 118.799C42.5127 118.271 38.762 117.282 38.762 116.599C38.762 114.279 47.062 98.8044 54.2234 87.7751C58.1474 81.7297 65.4247 72.7191 70.394 67.7537C91.158 47.0004 131.406 26.5204 161.374 21.4591C175.875 19.0097 229.427 19.0097 245.429 21.4591Z" fill="black" stroke="black" stroke-width="1.33333"/>
<path d="M176.096 20.7561C149.414 22.8628 127.686 30.4961 96.0957 48.8641C80.469 57.9495 64.169 73.6868 54.0224 89.4855C49.1597 97.0575 40.0957 113.832 40.0957 115.26C40.0957 115.775 45.6464 117.301 52.429 118.651C65.6477 121.28 87.225 126.569 91.1664 128.145C92.9837 128.873 93.4717 130.285 93.1664 133.937L92.7624 138.768L84.3424 138.919L75.9237 139.071L89.009 147.055C96.2064 151.447 109.596 159.72 118.762 165.44C127.929 171.16 146.829 182.715 160.762 191.117C174.696 199.52 189.762 208.745 194.245 211.619C201.341 216.167 202.861 216.665 205.998 215.472C210.565 213.736 217.574 213.716 222.076 215.427C225.304 216.655 226.426 215.917 237.241 205.471C243.664 199.267 250.384 192.921 252.174 191.369C253.964 189.819 260.529 183.883 266.762 178.177C276.505 169.26 297.309 150.912 318.808 132.273C322.082 129.433 327.889 124.66 331.71 121.664C335.53 118.669 338.474 116.036 338.252 115.813C338.029 115.591 335.1 116.425 331.741 117.671C326.672 119.549 325.28 119.637 323.533 118.187C320.296 115.501 321.022 111.907 325.437 108.763C330.257 105.331 355.474 93.3095 360.501 92.0481L364.076 91.1508L361.26 87.1975C356.089 79.9361 343.522 67.0948 334.684 60.0401C300.69 32.9108 266.736 21.6575 214.761 20.2975C201.194 19.9415 183.796 20.1481 176.096 20.7561ZM76.4717 77.2588C82.5304 79.8348 93.281 89.7161 94.257 93.6055C95.197 97.3468 91.7344 102.101 88.0717 102.101C85.6384 102.101 68.5464 90.1095 65.7624 86.4495C63.5024 83.4788 63.6664 80.0548 66.1904 77.5295C68.7624 74.9588 70.9277 74.9015 76.4717 77.2588ZM214.382 21.8388C216.842 23.4015 219.144 36.2441 218.15 42.8641C216.76 52.1415 210.836 55.6615 205.201 50.5615C201.925 47.5975 201.664 28.2628 204.838 23.7321C206.912 20.7708 211.325 19.8948 214.382 21.8388ZM333.588 77.2495C335.376 81.1748 333.333 85.4881 325.45 94.4348C321.792 98.5868 318.797 100.768 316.758 100.768C307.158 100.768 306.785 94.7055 315.762 84.5788C319.246 80.6495 322.996 76.7041 324.096 75.8108C327.438 73.0961 332.01 73.7895 333.588 77.2495Z" fill="#FFC324" stroke="#FFC324" stroke-width="1.33333"/>
<path d="M66.3178 77.6589C64.0938 79.8815 65.7191 85.1869 69.7618 88.9015C82.7458 100.832 93.4284 103.847 93.4284 95.5802C93.4284 89.2335 78.1591 76.7695 70.3831 76.7695C68.6364 76.7695 66.8058 77.1695 66.3178 77.6589Z" fill="black" stroke="black" stroke-width="1.33333"/>
<path d="M206.302 23.208C204.632 25.0534 204.096 28.2667 204.096 36.432C204.096 49.9374 204.661 51.436 209.758 51.436C215.424 51.436 217.337 48.1974 217.386 38.5227C217.462 23.816 212.258 16.6267 206.302 23.208Z" fill="black" stroke="black" stroke-width="1.33333"/>
<path d="M330.317 334.991C329.828 335.479 329.428 337.507 329.428 339.498C329.428 342.383 331.218 344.498 338.27 349.942C347.304 356.915 352.837 358.524 354.338 354.612C355.826 350.736 352.876 345.69 345.705 339.844C339.104 334.462 332.825 332.482 330.317 334.991Z" fill="black" stroke="black" stroke-width="1.33333"/>
<path d="M80.6767 339.073C75.5193 344.456 74.6953 346.062 75.0327 350.073C75.37 354.076 75.966 354.83 79.0607 355.188C84.0687 355.765 96.0953 344.702 96.0953 339.52C96.0953 330.709 88.8913 330.501 80.6767 339.073Z" fill="black" stroke="black" stroke-width="1.33333"/>
<path d="M318.239 83.5111C310.443 91.9311 308.385 98.2378 312.871 99.9591C316.291 101.271 317.099 100.975 322.099 96.5858C328.459 91.0018 333.882 81.6324 332.775 78.1431C331.161 73.0578 326.23 74.8791 318.239 83.5111Z" fill="black" stroke="black" stroke-width="1.33333"/>
<path d="M203.088 383.643C201.029 385.701 200.906 398.875 202.892 404.571C204.062 407.929 205.101 408.769 208.082 408.769C212.362 408.769 212.878 407.833 214.017 397.979C215.212 387.641 213.576 382.869 208.666 382.376C206.512 382.16 204.001 382.729 203.088 383.643Z" fill="black" stroke="black" stroke-width="1.33333"/>
<path d="M30.3517 204.827C23.0677 206.051 20.0957 207.999 20.0957 211.553C20.0957 215.683 24.973 217.195 35.2264 216.242C45.593 215.279 48.0957 213.933 48.0957 209.321C48.0957 203.825 43.3984 202.635 30.3517 204.827Z" fill="black" stroke="black" stroke-width="1.33333"/>
<path d="M379.001 202.973C375.296 205.974 376.215 209.746 380.939 210.933C382.708 211.377 388.185 211.221 393.111 210.587C400.245 209.67 402.163 208.931 402.539 206.961C403.255 203.21 401.593 202.378 391.416 201.393C383.425 200.619 381.625 200.847 379.001 202.973Z" fill="black" stroke="black" stroke-width="1.33333"/>
</svg>
