<svg width="1001" height="1001" viewBox="0 0 1001 1001" fill="none" xmlns="http://www.w3.org/2000/svg">
<path d="M1000.5 299.773C1000.5 299.773 847.477 299.774 745.462 316.485C643.446 333.196 531.23 398.117 531.23 398.117V867.505C531.23 867.505 633.035 814.091 714.857 816.485C789.021 818.655 857.679 867.505 867.88 867.505C878.082 867.505 1000.5 299.773 1000.5 299.773Z" fill="#949DB1"/>
<path d="M0.753906 299.773C0.753906 299.773 153.777 299.774 255.792 316.485C357.808 333.196 470.024 398.117 470.024 398.117V867.505C470.024 867.505 368.219 814.091 286.397 816.485C212.233 818.655 143.575 867.505 133.374 867.505C123.172 867.505 0.753906 299.773 0.753906 299.773Z" fill="#949DB1"/>
<path d="M867.883 143.821C867.883 143.821 786.271 113.209 684.255 154.025C582.24 194.842 510.829 307.086 510.829 307.086V357.291C510.829 357.291 572.038 306.27 684.255 275.658C796.472 245.046 867.883 245.046 867.883 245.046V143.821Z" fill="#949DB1"/>
<path d="M133.371 143.821C133.371 143.821 214.983 113.209 316.999 154.025C419.014 194.842 490.425 307.086 490.425 307.086V357.291C490.425 357.291 429.216 306.27 316.999 275.658C204.782 245.046 133.371 245.046 133.371 245.046V143.821Z" fill="#949DB1"/>
</svg>
