<svg width="42" height="49" viewBox="0 0 42 49" fill="none" xmlns="http://www.w3.org/2000/svg">
<path d="M12.1929 24.4954L5.86836 28.1832L0 38.4605L23.9386 24.4954H12.1929Z" fill="#874691"/>
<path d="M30.263 13.9651L23.9384 17.653L18.0701 27.9302L41.9997 13.9651H30.263Z" fill="#DA1844"/>
<path d="M23.9384 10.2773L18.0701 0V21.0697V27.9303V49L23.9384 38.7227V10.2773Z" fill="#F9B229"/>
<path d="M18.0701 0L23.9384 10.2773L30.263 13.9651H41.9997L18.0701 0Z" fill="#F07F1A"/>
<path d="M18.0701 21.0696V48.9999L23.9384 38.7226V31.3378L18.0701 21.0696Z" fill="#72B22C"/>
<path d="M30.263 35.0347L23.9384 38.7225L18.0701 48.9998L41.9997 35.0347H30.263Z" fill="#00743E"/>
<path d="M0 10.5303V38.4605L5.86836 28.1833V20.8075L0 10.5303Z" fill="#5F5A94"/>
<path d="M18.0702 21.0697V21.0787L0 10.5303L5.86836 20.8075L30.2632 35.0348H41.9999L18.0702 21.0697Z" fill="#0D90CD"/>
</svg>
